<svg xmlns="http://www.w3.org/2000/svg" viewBox="0 0 187.5 74.999997" preserveAspectRatio="xMidYMid meet" version="1.0"><g fill="currentColor" fill-opacity="1"><g transform="translate(37.486884, 51.713712)"><path d="M 17.195312 -5.136719 C 15.847656 -4.882812 14.753906 -4.734375 13.804688 -4.734375 C 11.800781 -4.734375 10.820312 -5.464844 10.820312 -7.757812 L 10.820312 -16.175781 L 17.046875 -16.175781 L 17.046875 -21.089844 L 10.820312 -21.089844 L 10.820312 -26.554688 L 4.773438 -26.554688 L 4.773438 -21.089844 L 1.492188 -21.089844 L 1.492188 -16.175781 L 4.773438 -16.175781 L 4.773438 -6.921875 C 4.773438 -1.382812 7.539062 0.546875 12.605469 0.546875 C 14.132812 0.546875 15.847656 0.363281 17.742188 0.0742188 Z"/></g><g transform="translate(56.970769, 51.713712)"><path d="M 14.753906 -21.089844 L 12.238281 -12.386719 L 11.039062 -7.6875 L 10.890625 -7.6875 L 9.617188 -12.386719 L 6.921875 -21.089844 L 0.910156 -21.089844 L 8.414062 0.0351562 L 5.792969 7.285156 L 11.183594 7.285156 L 20.691406 -21.089844 Z"/></g><g transform="translate(78.603343, 51.713712)"><path d="M 11.65625 0.65625 C 14.023438 0.65625 16.539062 0.109375 18.871094 -0.835938 L 17.195312 -5.828125 C 15.519531 -5.101562 13.914062 -4.734375 12.457031 -4.734375 C 9.179688 -4.734375 7.578125 -6.59375 7.578125 -10.527344 C 7.578125 -14.5 9.070312 -16.390625 12.238281 -16.390625 C 13.878906 -16.390625 15.480469 -15.957031 17.195312 -15.191406 L 19.015625 -20.179688 C 16.71875 -21.128906 14.207031 -21.746094 11.621094 -21.746094 C 5.136719 -21.746094 1.710938 -17.996094 1.710938 -10.492188 C 1.710938 -3.097656 5.136719 0.65625 11.65625 0.65625 Z"/></g><g transform="translate(98.888433, 51.713712)"><path d="M 12.019531 -21.636719 C 9.214844 -21.636719 6.082031 -21.054688 2.730469 -20.070312 L 4.1875 -15.300781 C 6.777344 -16.066406 8.851562 -16.539062 10.890625 -16.539062 C 13.550781 -16.539062 14.5 -15.699219 14.5 -13.660156 L 14.5 -12.566406 L 10.308594 -12.566406 C 4.296875 -12.566406 1.421875 -10.308594 1.421875 -6.121094 C 1.421875 -2.039062 4.152344 0.4375 8.777344 0.4375 C 11.074219 0.4375 13.441406 -0.183594 15.042969 -2.222656 L 15.917969 0 L 20.363281 0 L 20.363281 -14.023438 C 20.363281 -19.308594 17.632812 -21.636719 12.019531 -21.636719 Z M 10.382812 -4.007812 C 8.414062 -4.007812 6.996094 -4.734375 6.996094 -6.410156 C 6.996094 -8.050781 8.269531 -8.742188 10.273438 -8.742188 L 14.5 -8.742188 L 14.460938 -7.613281 C 14.460938 -5.464844 13.152344 -4.007812 10.382812 -4.007812 Z"/></g><g transform="translate(122.050585, 51.713712)"><path d="M 14.390625 -21.675781 C 12.238281 -21.675781 10.019531 -20.945312 7.90625 -19.234375 L 7.101562 -21.089844 L 2.804688 -21.089844 L 2.804688 0 L 8.777344 0 L 8.777344 -14.5 C 9.910156 -15.664062 11.148438 -16.285156 12.496094 -16.285156 C 14.132812 -16.285156 15.082031 -15.410156 15.082031 -13.476562 L 15.082031 0 L 21.019531 0 L 21.019531 -14.863281 C 21.019531 -19.308594 18.394531 -21.675781 14.390625 -21.675781 Z"/></g><g transform="translate(145.868269, 51.713712)"><path d="M 12.019531 -21.636719 C 9.214844 -21.636719 6.082031 -21.054688 2.730469 -20.070312 L 4.1875 -15.300781 C 6.777344 -16.066406 8.851562 -16.539062 10.890625 -16.539062 C 13.550781 -16.539062 14.5 -15.699219 14.5 -13.660156 L 14.5 -12.566406 L 10.308594 -12.566406 C 4.296875 -12.566406 1.421875 -10.308594 1.421875 -6.121094 C 1.421875 -2.039062 4.152344 0.4375 8.777344 0.4375 C 11.074219 0.4375 13.441406 -0.183594 15.042969 -2.222656 L 15.917969 0 L 20.363281 0 L 20.363281 -14.023438 C 20.363281 -19.308594 17.632812 -21.636719 12.019531 -21.636719 Z M 10.382812 -4.007812 C 8.414062 -4.007812 6.996094 -4.734375 6.996094 -6.410156 C 6.996094 -8.050781 8.269531 -8.742188 10.273438 -8.742188 L 14.5 -8.742188 L 14.460938 -7.613281 C 14.460938 -5.464844 13.152344 -4.007812 10.382812 -4.007812 Z"/></g></g><g fill="#4f46e5" fill-opacity="1"><g transform="translate(17.956199, 51.018255)"><path d="M 13.355469 5.566406 L 16.585938 5.566406 L 16.585938 2.441406 L 14.183594 2.441406 C 12.78125 2.441406 12.027344 1.6875 12.027344 0.214844 L 12.027344 -7.828125 C 12.027344 -10.195312 10.84375 -11.703125 8.832031 -11.992188 L 8.832031 -12.136719 C 10.84375 -12.421875 12.027344 -13.964844 12.027344 -16.300781 L 12.027344 -24.089844 C 12.027344 -25.5625 12.78125 -26.316406 14.183594 -26.316406 L 16.585938 -26.316406 L 16.585938 -29.441406 L 13.75 -29.441406 C 10.375 -29.441406 8.6875 -27.824219 8.6875 -24.628906 L 8.6875 -17.089844 C 8.6875 -14.683594 7.539062 -13.5 5.277344 -13.5 L 4.238281 -13.5 L 4.238281 -10.484375 L 5.277344 -10.484375 C 7.539062 -10.484375 8.6875 -9.300781 8.6875 -6.929688 L 8.6875 0.753906 C 8.6875 3.949219 10.269531 5.566406 13.355469 5.566406 Z"/></g></g></svg>